<svg width="40" height="40" viewBox="0 0 40 40" fill="none" xmlns="http://www.w3.org/2000/svg">
<g clip-path="url(#clip0_1_4)">
<rect width="40" height="40" rx="20" fill="#FF3333"/>
<g clip-path="url(#clip1_1_4)">
<path d="M10 14.0323V12.3234C10.0298 11.7049 10.253 11.1841 10.6696 10.761C11.0862 10.3378 11.5773 10.1263 12.1427 10.1263H14.2854V9.34506C14.2854 8.69406 14.4938 8.14071 14.9104 7.68501C15.327 7.22931 15.833 7.00146 16.4282 7.00146H23.5706C24.1658 7.00146 24.6717 7.22931 25.0883 7.68501C25.505 8.14071 25.7133 8.69406 25.7133 9.34506V10.1263H27.856C28.4214 10.1263 28.9125 10.3378 29.3291 10.761C29.7458 11.1841 29.969 11.7049 29.9987 12.3234V14.0323C29.9987 14.4554 29.8574 14.8216 29.5746 15.1308C29.2919 15.4401 28.9571 15.5947 28.5702 15.5947V28.8751C28.5702 29.7539 28.295 30.4944 27.7444 31.0966C27.1939 31.6988 26.5168 31.9999 25.7133 31.9999H14.2854C13.4819 31.9999 12.8049 31.6988 12.2543 31.0966C11.7037 30.4944 11.4285 29.7539 11.4285 28.8751V15.5947C11.0416 15.5947 10.7068 15.4401 10.4241 15.1308C10.1413 14.8216 9.99998 14.4554 10 14.0323ZM11.4285 14.0323H28.5702V12.4699C28.5702 12.242 28.5033 12.0548 28.3693 11.9084C28.2354 11.7619 28.0643 11.6886 27.856 11.6886H12.1427C11.9344 11.6886 11.7633 11.7619 11.6293 11.9084C11.4954 12.0548 11.4284 12.242 11.4284 12.4699V14.0323H11.4285ZM12.857 28.8751C12.857 29.2982 12.9983 29.6644 13.281 29.9736C13.5637 30.2829 13.8985 30.4375 14.2854 30.4375H25.7133C26.1002 30.4375 26.435 30.2829 26.7177 29.9736C27.0004 29.6644 27.1418 29.2982 27.1418 28.8751V15.5947H12.857V28.8751ZM14.2854 28.0939V17.9383C14.2854 17.7104 14.3524 17.5232 14.4863 17.3768C14.6203 17.2303 14.7914 17.157 14.9997 17.157H16.4282C16.6365 17.157 16.8076 17.2303 16.9416 17.3768C17.0755 17.5232 17.1424 17.7104 17.1424 17.9383V28.0939C17.1424 28.3217 17.0755 28.5089 16.9416 28.6554C16.8076 28.8018 16.6365 28.8751 16.4282 28.8751H14.9997C14.7914 28.8751 14.6203 28.8018 14.4863 28.6554C14.3524 28.5089 14.2854 28.3217 14.2854 28.0939ZM14.9997 28.0939H16.4282V17.9383H14.9997V28.0939ZM15.7139 10.1263H24.2848V9.34506C24.2848 9.11721 24.2178 8.93005 24.0839 8.78356C23.95 8.63708 23.7789 8.56384 23.5705 8.56384H16.4281C16.2198 8.56384 16.0487 8.63708 15.9148 8.78356C15.7808 8.93005 15.7139 9.11721 15.7139 9.34506V10.1263H15.7139ZM18.5709 28.0939V17.9383C18.5709 17.7104 18.6378 17.5232 18.7718 17.3768C18.9057 17.2303 19.0768 17.157 19.2851 17.157H20.7136C20.9219 17.157 21.0931 17.2303 21.227 17.3768C21.3609 17.5232 21.4279 17.7104 21.4279 17.9383V28.0939C21.4279 28.3217 21.3609 28.5089 21.227 28.6554C21.0931 28.8018 20.9219 28.8751 20.7136 28.8751H19.2851C19.0768 28.8751 18.9057 28.8018 18.7718 28.6554C18.6378 28.5089 18.5709 28.3217 18.5709 28.0939ZM19.2851 28.0939H20.7136V17.9383H19.2851V28.0939ZM22.8563 28.0939V17.9383C22.8563 17.7104 22.9233 17.5232 23.0572 17.3768C23.1911 17.2303 23.3623 17.157 23.5706 17.157H24.9991C25.2074 17.157 25.3785 17.2303 25.5124 17.3768C25.6464 17.5232 25.7133 17.7104 25.7133 17.9383V28.0939C25.7133 28.3217 25.6464 28.5089 25.5124 28.6554C25.3785 28.8018 25.2074 28.8751 24.9991 28.8751H23.5706C23.3623 28.8751 23.1911 28.8018 23.0572 28.6554C22.9233 28.5089 22.8563 28.3217 22.8563 28.0939ZM23.5706 28.0939H24.999V17.9383H23.5706V28.0939Z" fill="white"/>
</g>
</g>
<defs>
<clipPath id="clip0_1_4">
<rect width="40" height="40" fill="white"/>
</clipPath>
<clipPath id="clip1_1_4">
<rect width="20" height="25" fill="white" transform="translate(10 7)"/>
</clipPath>
</defs>
</svg>
